<svg width="20" height="20" viewBox="0 0 20 20" fill="none" xmlns="http://www.w3.org/2000/svg">
<path d="M15.4163 16.6667H4.58301L2.08301 19.1667V5C2.08301 3.625 3.20801 2.5 4.58301 2.5H15.4163C16.7913 2.5 17.9163 3.625 17.9163 5V14.1667C17.9163 15.5417 16.7913 16.6667 15.4163 16.6667Z" fill="#645656"/>
<path d="M9.16699 8.33331H10.8337V12.9166H9.16699V8.33331Z" fill="white"/>
<path d="M10.0003 7.08332C10.4606 7.08332 10.8337 6.71023 10.8337 6.24999C10.8337 5.78975 10.4606 5.41666 10.0003 5.41666C9.54009 5.41666 9.16699 5.78975 9.16699 6.24999C9.16699 6.71023 9.54009 7.08332 10.0003 7.08332Z" fill="white"/>
</svg>
