<svg width="20" height="20" viewBox="0 0 20 20" fill="none" xmlns="http://www.w3.org/2000/svg">
<g clip-path="url(#clip0_89_18)">
<path d="M8.33317 15.8333V11.6667H11.6665V15.8333C11.6665 16.2917 12.0415 16.6667 12.4998 16.6667H14.9998C15.4582 16.6667 15.8332 16.2917 15.8332 15.8333V10H17.2498C17.6332 10 17.8165 9.52501 17.5248 9.27501L10.5582 3.00001C10.2415 2.71667 9.75817 2.71667 9.4415 3.00001L2.47484 9.27501C2.1915 9.52501 2.3665 10 2.74984 10H4.1665V15.8333C4.1665 16.2917 4.5415 16.6667 4.99984 16.6667H7.49984C7.95817 16.6667 8.33317 16.2917 8.33317 15.8333Z" fill="#645656"/>
<line x1="19" y1="7.5" x2="35" y2="7.5" stroke="black"/>
</g>
<defs>
<clipPath id="clip0_89_18">
<rect width="20" height="20" fill="white"/>
</clipPath>
</defs>
</svg>
