<svg width="20" height="20" viewBox="0 0 20 20" fill="none" xmlns="http://www.w3.org/2000/svg">
<g clip-path="url(#clip0_189_51)">
<path d="M10.0003 18.3333C14.6027 18.3333 18.3337 14.6024 18.3337 10C18.3337 5.39763 14.6027 1.66667 10.0003 1.66667C5.39795 1.66667 1.66699 5.39763 1.66699 10C1.66699 14.6024 5.39795 18.3333 10.0003 18.3333Z" stroke="#645656" stroke-width="1.5"/>
<path d="M10 15C12.7614 15 15 12.7614 15 10C15 7.23858 12.7614 5 10 5C7.23858 5 5 7.23858 5 10C5 12.7614 7.23858 15 10 15Z" stroke="#645656" stroke-width="1.5"/>
<path d="M10.0007 11.6667C10.9211 11.6667 11.6673 10.9205 11.6673 10C11.6673 9.07954 10.9211 8.33334 10.0007 8.33334C9.08018 8.33334 8.33398 9.07954 8.33398 10C8.33398 10.9205 9.08018 11.6667 10.0007 11.6667Z" stroke="#645656" stroke-width="1.5"/>
<path d="M5 10H8.33333M11.6667 10H15M7.5 14.33L9.16667 11.4433M10.8333 8.55666L12.5 5.67M12.5 14.33L10.8333 11.4433M9.16667 8.55666L7.5 5.67" stroke="#645656" stroke-width="1.5" stroke-linecap="round"/>
</g>
<defs>
<clipPath id="clip0_189_51">
<rect width="20" height="20" fill="white"/>
</clipPath>
</defs>
</svg>
