<svg width="20" height="20" viewBox="0 0 20 20" fill="none" xmlns="http://www.w3.org/2000/svg">
<g clip-path="url(#clip0_189_62)">
<path d="M2.66667 16.6667V17.3333H4V16.6667H2.66667ZM9.33333 16.6667V17.3333H10.6667V16.6667H9.33333ZM4 16.6667V16H2.66667V16.6667H4ZM9.33333 16V16.6667H10.6667V16H9.33333ZM6.66667 13.3333C7.37391 13.3333 8.05219 13.6143 8.55229 14.1144C9.05238 14.6145 9.33333 15.2928 9.33333 16H10.6667C10.6667 14.9391 10.2452 13.9217 9.49509 13.1716C8.74495 12.4214 7.72753 12 6.66667 12V13.3333ZM4 16C4 15.2928 4.28095 14.6145 4.78105 14.1144C5.28115 13.6143 5.95942 13.3333 6.66667 13.3333V12C5.6058 12 4.58839 12.4214 3.83824 13.1716C3.08809 13.9217 2.66667 14.9391 2.66667 16H4ZM6.66667 5.33333C5.95942 5.33333 5.28115 5.61428 4.78105 6.11438C4.28095 6.61448 4 7.29276 4 8H5.33333C5.33333 7.64638 5.47381 7.30724 5.72386 7.05719C5.97391 6.80714 6.31305 6.66667 6.66667 6.66667V5.33333ZM9.33333 8C9.33333 7.29276 9.05238 6.61448 8.55229 6.11438C8.05219 5.61428 7.37391 5.33333 6.66667 5.33333V6.66667C7.02029 6.66667 7.35943 6.80714 7.60948 7.05719C7.85952 7.30724 8 7.64638 8 8H9.33333ZM6.66667 10.6667C7.37391 10.6667 8.05219 10.3857 8.55229 9.88562C9.05238 9.38552 9.33333 8.70724 9.33333 8H8C8 8.35362 7.85952 8.69276 7.60948 8.94281C7.35943 9.19286 7.02029 9.33333 6.66667 9.33333V10.6667ZM6.66667 9.33333C6.31305 9.33333 5.97391 9.19286 5.72386 8.94281C5.47381 8.69276 5.33333 8.35362 5.33333 8H4C4 8.70724 4.28095 9.38552 4.78105 9.88562C5.28115 10.3857 5.95942 10.6667 6.66667 10.6667V9.33333ZM2 4H18V2.66667H2V4ZM18.6667 4.66667V15.3333H20V4.66667H18.6667ZM18 16H2V17.3333H18V16ZM1.33333 15.3333V4.66667H0V15.3333H1.33333ZM2 16C1.82319 16 1.65362 15.9298 1.5286 15.8047C1.40357 15.6797 1.33333 15.5101 1.33333 15.3333H0C0 15.8638 0.210714 16.3725 0.585786 16.7475C0.960859 17.1226 1.46957 17.3333 2 17.3333V16ZM18.6667 15.3333C18.6667 15.5101 18.5964 15.6797 18.4714 15.8047C18.3464 15.9298 18.1768 16 18 16V17.3333C18.5304 17.3333 19.0391 17.1226 19.4142 16.7475C19.7893 16.3725 20 15.8638 20 15.3333H18.6667ZM18 4C18.1768 4 18.3464 4.07024 18.4714 4.19526C18.5964 4.32029 18.6667 4.48986 18.6667 4.66667H20C20 4.13623 19.7893 3.62753 19.4142 3.25245C19.0391 2.87738 18.5304 2.66667 18 2.66667V4ZM2 2.66667C1.46957 2.66667 0.960859 2.87738 0.585786 3.25245C0.210714 3.62753 0 4.13623 0 4.66667H1.33333C1.33333 4.48986 1.40357 4.32029 1.5286 4.19526C1.65362 4.07024 1.82319 4 2 4V2.66667ZM12 8H16V6.66667H12V8ZM12 12H16V10.6667H12V12ZM0 20H20V18.6667H0V20ZM4 0V3.33333H5.33333V0H4ZM14.6667 0V3.33333H16V0H14.6667Z" fill="#645656"/>
</g>
<defs>
<clipPath id="clip0_189_62">
<rect width="20" height="20" fill="white"/>
</clipPath>
</defs>
</svg>
