<svg width="20" height="20" viewBox="0 0 20 20" fill="none" xmlns="http://www.w3.org/2000/svg">
<g clip-path="url(#clip0_189_49)">
<path d="M19.625 17.875L14.375 12.625C14.125 12.375 13.75 12.25 13.375 12.25C14.375 11 15 9.25 15 7.5C15 3.375 11.625 0 7.5 0C3.375 0 0 3.375 0 7.5C0 11.625 3.375 15 7.5 15C9.25 15 11 14.375 12.25 13.25C12.25 13.625 12.25 14 12.625 14.25L17.875 19.5C18.125 19.75 18.5 19.875 18.75 19.875C19 19.875 19.375 19.75 19.625 19.5C20.125 19.125 20.125 18.375 19.625 17.875ZM7.5 13.125C4.375 13.125 1.875 10.625 1.875 7.5C1.875 4.375 4.375 1.875 7.5 1.875C10.625 1.875 13.125 4.375 13.125 7.5C13.125 10.625 10.625 13.125 7.5 13.125Z" fill="#645656"/>
</g>
<defs>
<clipPath id="clip0_189_49">
<rect width="20" height="20" fill="white"/>
</clipPath>
</defs>
</svg>
